<mxfile host="www.draw.io" modified="2019-12-10T09:32:29.471Z" agent="Mozilla/5.0 (Windows NT 10.0; Win64; x64) AppleWebKit/537.36 (KHTML, like Gecko) Chrome/78.0.3904.108 Safari/537.36" etag="ZxaftGpR6X83JL4_9Woq" version="12.3.9" type="github" pages="1">
  <diagram id="npbPIhp3O4nb7fUVfA89" name="Page-1">
    <mxGraphModel dx="1422" dy="794" grid="1" gridSize="10" guides="1" tooltips="1" connect="1" arrows="1" fold="1" page="1" pageScale="1" pageWidth="827" pageHeight="1169" math="1" shadow="0">
      <root>
        <mxCell id="0"/>
        <mxCell id="1" parent="0"/>
        <mxCell id="ERMoTEU1ZdiAvk5Pcdhp-1" value="" style="group" vertex="1" connectable="0" parent="1">
          <mxGeometry x="161" y="161" width="30" height="30" as="geometry"/>
        </mxCell>
        <mxCell id="ERMoTEU1ZdiAvk5Pcdhp-2" value="" style="group" vertex="1" connectable="0" parent="ERMoTEU1ZdiAvk5Pcdhp-1">
          <mxGeometry width="30" height="30" as="geometry"/>
        </mxCell>
        <mxCell id="ERMoTEU1ZdiAvk5Pcdhp-3" value="" style="group" vertex="1" connectable="0" parent="ERMoTEU1ZdiAvk5Pcdhp-2">
          <mxGeometry width="30" height="30" as="geometry"/>
        </mxCell>
        <mxCell id="ERMoTEU1ZdiAvk5Pcdhp-4" value="" style="ellipse;whiteSpace=wrap;html=1;aspect=fixed;" vertex="1" parent="ERMoTEU1ZdiAvk5Pcdhp-3">
          <mxGeometry width="30" height="30" as="geometry"/>
        </mxCell>
        <mxCell id="ERMoTEU1ZdiAvk5Pcdhp-5" value="" style="endArrow=none;html=1;" edge="1" parent="ERMoTEU1ZdiAvk5Pcdhp-3">
          <mxGeometry width="50" height="50" relative="1" as="geometry">
            <mxPoint x="4.285714285714286" y="25.71428571428571" as="sourcePoint"/>
            <mxPoint x="25.71428571428571" y="4.285714285714286" as="targetPoint"/>
          </mxGeometry>
        </mxCell>
        <mxCell id="ERMoTEU1ZdiAvk5Pcdhp-6" value="&lt;span style=&quot;font-size: 32px ; text-align: left&quot;&gt;$$A$$&lt;/span&gt;" style="text;html=1;align=center;verticalAlign=middle;resizable=0;points=[];;autosize=1;" vertex="1" parent="1">
          <mxGeometry x="120" y="55" width="110" height="30" as="geometry"/>
        </mxCell>
        <mxCell id="ERMoTEU1ZdiAvk5Pcdhp-7" value="&lt;div style=&quot;text-align: left&quot;&gt;&lt;span style=&quot;font-size: 32px&quot;&gt;$$A_0$$&lt;/span&gt;&lt;/div&gt;" style="text;html=1;align=center;verticalAlign=middle;resizable=0;points=[];;autosize=1;" vertex="1" parent="1">
          <mxGeometry x="179" y="160" width="140" height="30" as="geometry"/>
        </mxCell>
        <mxCell id="ERMoTEU1ZdiAvk5Pcdhp-8" style="edgeStyle=orthogonalEdgeStyle;rounded=0;orthogonalLoop=1;jettySize=auto;html=1;exitX=0.5;exitY=1;exitDx=0;exitDy=0;" edge="1" parent="1" source="ERMoTEU1ZdiAvk5Pcdhp-4">
          <mxGeometry relative="1" as="geometry">
            <mxPoint x="176" y="261" as="targetPoint"/>
          </mxGeometry>
        </mxCell>
        <mxCell id="ERMoTEU1ZdiAvk5Pcdhp-9" value="&lt;font style=&quot;font-size: 24px&quot;&gt;$$RR&#39;$$&lt;/font&gt;" style="text;html=1;align=center;verticalAlign=middle;resizable=0;points=[];;autosize=1;" vertex="1" parent="1">
          <mxGeometry x="81" y="220" width="110" height="20" as="geometry"/>
        </mxCell>
        <mxCell id="ERMoTEU1ZdiAvk5Pcdhp-16" style="edgeStyle=orthogonalEdgeStyle;rounded=0;orthogonalLoop=1;jettySize=auto;html=1;exitX=0.5;exitY=1;exitDx=0;exitDy=0;entryX=0.5;entryY=0;entryDx=0;entryDy=0;fontColor=#FFFFFF;" edge="1" parent="1" source="ERMoTEU1ZdiAvk5Pcdhp-17" target="ERMoTEU1ZdiAvk5Pcdhp-4">
          <mxGeometry relative="1" as="geometry"/>
        </mxCell>
        <mxCell id="ERMoTEU1ZdiAvk5Pcdhp-17" value="" style="whiteSpace=wrap;html=1;aspect=fixed;fontColor=#FFFFFF;strokeColor=none;" vertex="1" parent="1">
          <mxGeometry x="152.5" y="39" width="47" height="47" as="geometry"/>
        </mxCell>
        <mxCell id="ERMoTEU1ZdiAvk5Pcdhp-19" value="" style="whiteSpace=wrap;html=1;aspect=fixed;fontColor=#FFFFFF;strokeColor=#FFFFFF;" vertex="1" parent="1">
          <mxGeometry x="225.5" y="153" width="47" height="47" as="geometry"/>
        </mxCell>
        <mxCell id="ERMoTEU1ZdiAvk5Pcdhp-21" value="" style="endArrow=classic;html=1;fontColor=#FFFFFF;exitX=0;exitY=0.5;exitDx=0;exitDy=0;" edge="1" parent="1" source="ERMoTEU1ZdiAvk5Pcdhp-19">
          <mxGeometry width="50" height="50" relative="1" as="geometry">
            <mxPoint x="207.47173075716296" y="95" as="sourcePoint"/>
            <mxPoint x="192" y="176" as="targetPoint"/>
          </mxGeometry>
        </mxCell>
      </root>
    </mxGraphModel>
  </diagram>
</mxfile>
